<svg id="Layer_1" height="512" viewBox="0 0 512 512" width="512" xmlns="http://www.w3.org/2000/svg" data-name="Layer 1"><path d="m390.934 331.367a35.972 35.972 0 0 0 -50.564-5l-37.818 31.009a7.026 7.026 0 0 1 -8.066.749c-58.179-31.914-93-74.376-112.891-137.68a7.023 7.023 0 0 1 2.314-7.762l37.818-31.008a35.97 35.97 0 0 0 5-50.565l-63.59-77.552a35.98 35.98 0 0 0 -50.564-5l-54.067 44.332a35.142 35.142 0 0 0 -13.049 25.1c-13.779 184 140.124 371.664 322.9 393.731a38.169 38.169 0 0 0 4.552.277 35.027 35.027 0 0 0 22.533-8.165l54.083-44.346a35.969 35.969 0 0 0 5-50.564zm-253.619-274.839a19.794 19.794 0 0 1 13.452 7.172l63.589 77.553a19.952 19.952 0 0 1 -2.774 28.047l-3.138 2.573-88.862-108.373 3.138-2.573a19.781 19.781 0 0 1 14.595-4.399zm247.979 434.931a18.989 18.989 0 0 1 -15.023 4.375c-174.828-21.107-322.041-200.634-308.859-376.65a19 19 0 0 1 7.238-13.921l38.559-31.617 88.862 108.373-22.307 18.291a22.839 22.839 0 0 0 -7.433 24.931c21.229 67.548 58.38 112.857 120.46 146.91a22.834 22.834 0 0 0 25.906-2.4l22.303-18.294 88.862 108.374zm54.083-44.347-3.138 2.574-88.862-108.374 3.138-2.573a19.952 19.952 0 0 1 28.047 2.774l63.589 77.552a19.951 19.951 0 0 1 -2.774 28.047zm-22.888-433.454a101.78 101.78 0 0 0 -120.725 162.179l-4.764 40.484a8 8 0 0 0 12.729 7.349l32.671-24.37a101.777 101.777 0 0 0 80.089-185.64zm-28.689 170.986a85.333 85.333 0 0 1 -50.25-1.787 8.014 8.014 0 0 0 -7.404 1.143l-21.085 15.727 3.077-26.125a8 8 0 0 0 -2.712-6.986 85.777 85.777 0 0 1 33.974-147.67 86.257 86.257 0 0 1 22.34-2.96 85.794 85.794 0 0 1 22.06 168.658zm-22.386-44.636a8 8 0 0 1 -7.723 8.267c-8.552.292-17.167.439-25.78.439s-17.227-.147-25.781-.439a8 8 0 0 1 -6.032-3.07c-2.9-3.708-4.626-10.066 3.585-19.3 3.732-4.2 9.194-8.89 14.976-13.861 9.754-8.383 27.909-23.988 25.852-31.231a15.552 15.552 0 0 0 -30.174 1.024 8 8 0 0 1 -15.653-3.315 31.552 31.552 0 0 1 61.217-2.082c4.854 17.082-14.094 33.369-30.812 47.738-2.884 2.478-6.509 5.594-9.541 8.429 12.535.209 25.132.1 37.6-.326a7.984 7.984 0 0 1 8.27 7.727zm60.06-29.463h-7.694v-47.73a8 8 0 0 0 -14.631-4.476l-37.622 55.729a8 8 0 0 0 6.631 12.477h29.622v15.533a8 8 0 0 0 16 0v-15.533h7.694a8 8 0 0 0 0-16zm-23.694 0h-14.565l14.569-21.581z"/></svg>