<svg width="57" height="65" viewBox="0 0 57 65" fill="none" xmlns="http://www.w3.org/2000/svg">
<g id="Group 51">
<path id="Vector (Stroke)" fill-rule="evenodd" clip-rule="evenodd" d="M27.5523 0.114409C28.0709 -0.0382095 28.622 -0.038135 29.1406 0.114625L54.6279 7.62223C55.8362 7.97814 56.6667 9.09517 56.6667 10.3644V25.7595C56.6665 34.2491 54.0169 42.5235 49.0932 49.4103C44.1695 56.2971 37.2214 61.4472 29.2333 64.1309C28.652 64.3262 28.0236 64.3262 27.4423 64.131C19.4517 61.4477 12.5014 56.297 7.57601 49.4088C2.65065 42.5205 0.000122201 34.2442 0 25.7524V10.3644C0 9.09488 0.830876 7.97768 2.03953 7.62201L27.5523 0.114409ZM5.66667 12.5066V25.7523C5.66667 25.7523 5.66667 25.7524 5.66667 25.7523C5.66678 33.0447 7.94294 40.1521 12.1726 46.0674C16.2172 51.7239 21.852 56.016 28.3374 58.3957C34.8206 56.0158 40.4533 51.7243 44.4964 46.0692C48.7245 40.1553 50.9999 33.0499 51 25.7595C51 25.7595 51 25.7596 51 25.7595V12.506L28.3457 5.83285L5.66667 12.5066Z" fill="white"/>
<path id="Vector (Stroke)_2" fill-rule="evenodd" clip-rule="evenodd" d="M29.1632 16.5489C30.2697 15.4332 32.0637 15.4332 33.1701 16.5489L40.2535 23.6908C41.0638 24.5079 41.3062 25.7366 40.8677 26.8041C40.4291 27.8716 39.396 28.5676 38.25 28.5676H18.4167C16.8519 28.5676 15.5833 27.2886 15.5833 25.7109C15.5833 24.1331 16.8519 22.8541 18.4167 22.8541H31.4097L29.1632 20.589C28.0567 19.4733 28.0567 17.6645 29.1632 16.5489ZM15.799 33.188C16.2376 32.1204 17.2707 31.4244 18.4167 31.4244H38.25C39.8148 31.4244 41.0833 32.7034 41.0833 34.2812C41.0833 35.8589 39.8148 37.138 38.25 37.138H25.2569L27.5035 39.4031C28.61 40.5187 28.61 42.3275 27.5035 43.4432C26.397 44.5588 24.603 44.5588 23.4965 43.4432L16.4132 36.3012C15.6029 35.4842 15.3605 34.2555 15.799 33.188Z" fill="white"/>
</g>
</svg>
