<svg id="Layer_1" enable-background="new 0 0 512 512" height="512" fill="#134fe3" viewBox="0 0 512 512" width="512" xmlns="http://www.w3.org/2000/svg"><path clip-rule="evenodd" d="m256 512c-141.159 0-256-114.841-256-256s114.841-256 256-256 256 114.841 256 256-114.841 256-256 256zm180.757-177.46c-2.614-9.757-12.644-15.544-22.396-12.93l-10.507 2.816c25.909-57.802 15.755-125.698-27.355-173.554-6.759-7.503-18.321-8.107-25.825-1.347-7.503 6.759-8.106 18.321-1.347 25.825 33.541 37.233 41.272 90.166 20.743 135.039l-4.549-16.975c-2.614-9.757-12.643-15.543-22.395-12.93-9.755 2.614-15.544 12.641-12.929 22.396l15.054 56.18c2.189 8.17 9.577 13.558 17.65 13.558 1.567 0 3.16-.203 4.744-.627l56.18-15.054c9.757-2.616 15.545-12.642 12.932-22.397zm-321.237-104.313c1.95.661 3.932.976 5.881.976 7.617 0 14.727-4.796 17.312-12.409 2.626-7.734 6.036-15.255 10.137-22.357 20.677-35.814 55.393-57.913 93.705-61.5l-11.862 11.862c-7.142 7.141-7.142 18.719 0 25.859 3.57 3.57 8.25 5.357 12.929 5.357s9.359-1.786 12.929-5.357l41.127-41.127c7.142-7.14 7.142-18.718 0-25.859l-41.127-41.128c-7.142-7.142-18.72-7.142-25.859 0-7.142 7.141-7.142 18.719 0 25.859l8.105 8.105c-49.814 4.691-94.861 33.294-121.62 79.642-5.295 9.169-9.7 18.887-13.095 28.881-3.244 9.564 1.876 19.948 11.438 23.196zm167.079 150.349c-30.137 6.411-61.443 1.449-88.152-13.97-16.603-9.586-29.422-21.201-39.065-35.535l16.949 4.542c9.752 2.61 19.78-3.176 22.395-12.93 2.615-9.755-3.174-19.782-12.929-22.396l-56.18-15.053c-9.754-2.612-19.782 3.175-22.396 12.929l-15.053 56.182c-2.615 9.755 3.174 19.783 12.929 22.397 1.585.424 3.177.628 4.744.628 8.073 0 15.462-5.389 17.65-13.557l2.805-10.467c12.581 18.084 29.111 32.95 49.866 44.934 24.698 14.259 52.434 21.604 80.49 21.604 11.192 0 22.439-1.17 33.558-3.536 9.878-2.1 16.182-11.813 14.081-21.69-2.102-9.881-11.812-16.186-21.692-14.082z" fill-rule="evenodd"/></svg>