<svg id="Layer_1" height="512" viewBox="0 0 60 60" width="512" xmlns="http://www.w3.org/2000/svg" fill="#134fe3"><g><path d="m48.12 51.01c0 .55-.45 1-1 1h-41.12c-.55 0-1-.45-1-1s.45-1 1-1h41.12c.55 0 1 .45 1 1z"/><path d="m46.08 39.99v3.21c0 2.3-1.87 4.17-4.17 4.17h-30.69c-2.3 0-4.17-1.87-4.17-4.17v-20.78c0-2.3 1.87-4.17 4.17-4.17h21.93v16.43c0 2.93 2.38 5.31 5.3 5.31z"/><path d="m51.7 7.99h-13.25c-1.82 0-3.3 1.48-3.3 3.31v23.39c0 1.82 1.48 3.31 3.3 3.31h13.25c1.82 0 3.3-1.49 3.3-3.31v-23.39c0-1.84-1.48-3.31-3.3-3.31zm-3.46 26.71h-6.32c-.55 0-1-.45-1-1s.45-1 1-1h6.32c.55 0 1 .45 1 1s-.45 1-1 1z"/></g></svg>