<svg class="svg-icon" style="width: 1em;height: 1em;vertical-align: middle;fill: currentColor;overflow: hidden;" viewBox="0 0 1024 1024" version="1.1" xmlns="http://www.w3.org/2000/svg"><path d="M192 578.4a16 16 0 0 1-8.16-2.24l-93.76-55.52h-1.12a53.44 53.44 0 0 1 1.28-91.04l93.76-55.52a16 16 0 0 1 24 13.12v176a16 16 0 0 1-16 16z m-85.44-85.12L176 534.4V416l-69.6 40.48A21.28 21.28 0 0 0 96 474.72a20.96 20.96 0 0 0 10.08 18.08zM432 624a136.48 136.48 0 0 1-90.56-32.96 102.24 102.24 0 0 1 0-158.24A135.84 135.84 0 0 1 432 400c70.56 0 128 50.24 128 112s-57.44 112-128 112z m0-192a104 104 0 0 0-69.44 24.96 70.24 70.24 0 0 0 0 109.92A104 104 0 0 0 432 592c52.96 0 96-35.84 96-80s-43.04-80-96-80zM832 578.4a16 16 0 0 1-16-16V387.2a16 16 0 0 1 24.16-13.76l93.76 55.52a53.44 53.44 0 0 1 1.28 91.04l-1.76 1.12L840.16 576a16 16 0 0 1-8.16 2.4zM848 416v118.4l69.6-41.28a21.28 21.28 0 0 0 0-36.32z m78.08 91.52z"  /><path d="M880 960H144a80 80 0 0 1-80-80V474.72a16 16 0 0 1 32 0 20.96 20.96 0 0 0 10.08 18.08l380.96 225.6a48 48 0 0 0 48.96 0l381.6-225.28a21.12 21.12 0 0 0 10.4-18.4 16 16 0 0 1 32 0V880a80 80 0 0 1-80 80zM96 524.16V880a48 48 0 0 0 48 48h736a48 48 0 0 0 48-48V524.16L552.8 746.4a80 80 0 0 1-81.6 0z"  /><path d="M97.44 901.6a16 16 0 0 1-11.36-4.64 16 16 0 0 1 0-22.72 27.04 27.04 0 0 1 4.96-3.36l318.4-188.64a16 16 0 1 1 16 27.52l-65.6 38.88-253.44 150.24a16 16 0 0 1-8.96 2.72zM926.56 901.6a16 16 0 0 1-9.28-2.88L598.24 709.76a16 16 0 0 1 16-27.52l320 189.12a23.04 23.04 0 0 1 4 2.88 16 16 0 0 1 0 22.72 16 16 0 0 1-11.68 4.64z"  /><path d="M608 711.04a16 16 0 0 1-16-16V222.4a80 80 0 0 1-62.4-62.4H334.24a80 80 0 0 1-58.08 61.44l-4.16 0.96v377.92a16 16 0 0 1-24.16 13.76l-64-37.92a16 16 0 0 1-7.84-13.76V144a80 80 0 0 1 80-80h352a80 80 0 0 1 76.96 58.88A69.44 69.44 0 0 1 688 144v513.12a16 16 0 0 1-7.84 13.76l-64 37.92a16 16 0 0 1-8.16 2.24zM320 128h224a16 16 0 0 1 16 16 48 48 0 0 0 48 48 16 16 0 0 1 16 16v459.04l32-19.04V144a46.08 46.08 0 0 0-1.76-12.48A48 48 0 0 0 608 96H256a48 48 0 0 0-48 48v409.28l32 18.88V208a16 16 0 0 1 16-16 49.12 49.12 0 0 0 12.32-1.6A48 48 0 0 0 304 145.6V144a16 16 0 0 1 16-16z m352 529.12z"  /><path d="M432 624a136.48 136.48 0 0 1-90.56-32.96 102.24 102.24 0 0 1 0-158.24A135.84 135.84 0 0 1 432 400c70.56 0 128 50.24 128 112s-57.44 112-128 112z m0-192a104 104 0 0 0-69.44 24.96 70.24 70.24 0 0 0 0 109.92A104 104 0 0 0 432 592c52.96 0 96-35.84 96-80s-43.04-80-96-80zM672 673.12a16 16 0 0 1-16-16V144a16 16 0 0 1 16-16h16a80 80 0 0 1 76.96 58.88A69.44 69.44 0 0 1 768 208v401.76a16 16 0 0 1-7.84 13.76l-80 48a16 16 0 0 1-8.16 1.6zM688 160v469.12l48-28.48V208a46.08 46.08 0 0 0-1.76-12.48A48 48 0 0 0 688 160z m64 449.76z"  /><path d="M752 625.76a16 16 0 0 1-16-16V208a16 16 0 0 1 16-16h16a80 80 0 0 1 76.96 58.88A69.44 69.44 0 0 1 848 272v290.4a16 16 0 0 1-7.84 13.76l-80 48a16 16 0 0 1-8.16 1.6zM768 224v357.76l48-28.48V272a46.08 46.08 0 0 0-1.76-12.48A48 48 0 0 0 768 224z m64 338.4z"  /></svg>