<?xml version="1.0" standalone="no"?>
<!DOCTYPE svg PUBLIC "-//W3C//DTD SVG 20010904//EN"
 "http://www.w3.org/TR/2001/REC-SVG-20010904/DTD/svg10.dtd">
<svg version="1.0" xmlns="http://www.w3.org/2000/svg"
 width="512.000000pt" height="512.000000pt" viewBox="0 0 512.000000 512.000000"
 preserveAspectRatio="xMidYMid meet">

<g transform="translate(0.000000,512.000000) scale(0.100000,-0.100000)"
fill="#000000" stroke="none">
<path d="M2405 4794 c-782 -84 -1387 -710 -1441 -1491 l-7 -102 -268 -3 c-252
-3 -269 -4 -295 -24 -15 -11 -37 -33 -48 -48 -21 -27 -21 -30 -21 -1366 0
-1336 0 -1339 21 -1366 11 -15 33 -37 48 -48 l27 -21 2139 0 2139 0 27 21 c15
11 37 33 48 48 21 27 21 30 21 1366 0 1336 0 1339 -21 1366 -11 15 -33 37 -48
48 -26 20 -43 21 -295 24 l-268 3 -7 102 c-50 726 -576 1324 -1291 1467 -98
20 -368 34 -460 24z m425 -343 c249 -57 449 -168 631 -350 226 -226 351 -496
375 -810 l7 -91 -415 0 -416 0 -27 55 c-73 151 -217 245 -402 264 -90 9 -118
23 -157 75 -29 39 -29 133 0 172 39 53 71 69 134 69 94 0 145 -50 160 -155 15
-105 66 -155 160 -155 123 0 182 97 151 246 -28 136 -134 275 -252 333 -54 26
-57 29 -62 73 -5 49 -27 85 -71 117 -20 16 -42 21 -86 21 -44 0 -66 -5 -86
-21 -44 -32 -66 -68 -71 -117 -5 -44 -8 -47 -62 -73 -70 -34 -170 -133 -205
-202 -14 -28 -33 -77 -41 -109 -64 -247 93 -509 348 -578 46 -12 -14 -14 -557
-14 l-609 -1 7 91 c24 316 147 582 375 810 147 147 287 237 470 303 76 27 215
61 286 69 87 10 330 -3 415 -22z m-1554 -1636 c-22 -211 -157 -407 -347 -503
-81 -41 -190 -71 -256 -72 l-33 0 0 320 0 320 321 0 322 0 -7 -65z m2248 -14
c19 -227 115 -432 280 -597 165 -165 370 -261 597 -280 l79 -7 0 -157 0 -157
-79 -7 c-227 -19 -432 -115 -597 -280 -165 -165 -261 -370 -280 -597 l-7 -79
-957 0 -957 0 -7 79 c-8 98 -35 207 -75 300 -98 230 -315 436 -548 521 -88 31
-227 60 -294 60 l-39 0 0 160 0 160 39 0 c66 0 207 29 291 59 133 49 233 114
345 226 171 171 261 363 281 598 l7 77 957 0 957 0 7 -79z m956 -241 l0 -320
-32 0 c-149 1 -341 95 -451 221 -85 97 -156 273 -157 387 l0 32 320 0 320 0 0
-320z m-3705 -1295 c141 -29 291 -126 377 -242 73 -99 127 -248 128 -350 l0
-33 -320 0 -320 0 0 320 0 320 33 0 c17 0 64 -7 102 -15z m3705 -305 l0 -320
-320 0 -320 0 0 33 c1 116 74 292 162 391 108 122 293 212 441 215 l37 1 0
-320z"/>
<path d="M2495 2706 c-56 -26 -95 -85 -95 -145 0 -25 -8 -32 -57 -57 -72 -34
-172 -132 -207 -202 -95 -187 -65 -399 77 -550 87 -91 185 -137 324 -151 90
-9 118 -23 157 -75 29 -39 29 -133 0 -172 -39 -53 -71 -69 -134 -69 -94 0
-145 50 -160 155 -15 105 -66 155 -160 155 -123 0 -182 -97 -151 -246 28 -136
134 -275 252 -333 54 -26 57 -29 62 -73 5 -49 27 -85 71 -117 39 -29 133 -29
172 0 44 32 66 68 71 117 5 44 8 47 62 73 70 34 170 133 205 202 95 187 65
399 -77 550 -87 91 -185 137 -324 151 -90 9 -118 23 -157 75 -29 39 -29 133 0
172 39 53 71 69 134 69 94 0 145 -50 160 -155 15 -105 66 -155 160 -155 123 0
182 97 151 246 -28 136 -134 275 -252 333 -54 26 -57 29 -62 73 -9 78 -65 133
-144 140 -28 2 -61 -2 -78 -11z"/>
</g>
</svg>
