<svg class="svg-icon" style="width: 1em; height: 1em;vertical-align: middle;fill: currentColor;overflow: hidden;" viewBox="0 0 1024 1024" version="1.1" xmlns="http://www.w3.org/2000/svg"><path d="M864 96H160c-35.346 0-64 28.654-64 64v704c0 35.347 28.654 64 64 64h704c35.346 0 64-28.653 64-64V160c0-35.346-28.654-64-64-64z m32 768c0 17.673-14.327 32-32 32H160c-17.673 0-32-14.327-32-32V160c0-17.673 14.327-32 32-32h704c17.673 0 32 14.327 32 32v704z m-88-608h-48c-13.255 0-24 10.745-24 24v128h-16V248c0-13.255-10.745-24-24-24h-48c-13.255 0-24 10.745-24 24v128h-16V248c0-13.255-10.745-24-24-24h-48c-13.255 0-24 10.745-24 24v128h-16v-96c0-13.255-10.745-24-24-24h-48c-13.255 0-24 10.745-24 24v128h-16V288c0-53.02-42.98-96-96-96s-96 42.98-96 96v440c0 0.766 0.072 1.513 0.176 2.25A97.757 97.757 0 0 0 192 736c0 53.02 42.98 96 96 96s96-42.98 96-96c0-1.932-0.064-3.848-0.176-5.75 0.104-0.737 0.176-1.484 0.176-2.25V616h16v96c0 2.354 0.512 5.155 1.424 8H400v24c0 13.255 10.745 24 24 24h48c13.255 0 24-10.745 24-24V584h16v128c0 13.255 10.745 24 24 24h48c13.255 0 24-10.745 24-24V584h16v128c0 13.255 10.745 24 24 24h48c13.255 0 24-10.745 24-24v-96h16v128c0 13.255 10.745 24 24 24h48c13.255 0 24-10.745 24-24V280c0-13.255-10.745-24-24-24zM288 800.003c-35.348 0-64.003-28.655-64.003-64.003s28.655-64.003 64.003-64.003 64.003 28.655 64.003 64.003-28.655 64.003-64.003 64.003zM352 288v376.452C335.015 649.249 312.589 640 288 640s-47.015 9.249-64 24.452V288h-0.003c0-35.348 28.655-64.003 64.003-64.003s64.003 28.655 64.003 64.003H352z m48 296h-16V440h16v144z m64-280v420c0 6.627-5.373 12-12 12h-8c-6.627 0-12-5.373-12-12V300c0-6.627 5.373-12 12-12h8c6.627 0 12 5.373 12 12v4z m48 248h-16V408h16v144z m64-280v420c0 6.627-5.373 12-12 12h-8c-6.627 0-12-5.373-12-12V268c0-6.627 5.373-12 12-12h8c6.627 0 12 5.373 12 12v4z m48 280h-16V408h16v144z m64-280v420c0 6.627-5.373 12-12 12h-8c-6.627 0-12-5.373-12-12V268c0-6.627 5.373-12 12-12h8c6.627 0 12 5.373 12 12v4z m48 312h-16V440h16v144z m64-280v420c0 6.627-5.373 12-12 12h-8c-6.627 0-12-5.373-12-12V300c0-6.627 5.373-12 12-12h8c6.627 0 12 5.373 12 12v4z"  /></svg>