<svg width="218" height="23" viewBox="0 0 218 23" fill="none" xmlns="http://www.w3.org/2000/svg">
<g id="Group 66">
<g id="Group 64">
<path id="Vector" d="M163.616 17.5991V4.39989H166.062V6.5482H166.224C166.496 5.82064 166.942 5.25349 167.562 4.84674C168.181 4.43427 168.923 4.22803 169.786 4.22803C170.661 4.22803 171.394 4.43427 171.985 4.84674C172.582 5.25922 173.022 5.82637 173.306 6.5482H173.442C173.755 5.84356 174.252 5.28213 174.934 4.86393C175.616 4.43999 176.428 4.22803 177.371 4.22803C178.559 4.22803 179.528 4.60327 180.278 5.35374C181.033 6.10422 181.411 7.23566 181.411 8.74807V17.5991H178.863V8.98868C178.863 8.09499 178.621 7.44763 178.138 7.04661C177.655 6.64559 177.079 6.44508 176.408 6.44508C175.579 6.44508 174.934 6.70288 174.474 7.21848C174.013 7.72834 173.783 8.38429 173.783 9.18633V17.5991H171.244V8.82541C171.244 8.10931 171.022 7.53356 170.579 7.09817C170.136 6.66278 169.559 6.44508 168.849 6.44508C168.366 6.44508 167.92 6.57398 167.511 6.83178C167.107 7.08385 166.78 7.43617 166.53 7.88875C166.286 8.34132 166.164 8.86551 166.164 9.46131V17.5991H163.616Z" fill="#FAFAFA"/>
<path id="Vector_2" d="M157.635 12.125V4.39966H160.192V17.5989H157.686V15.3131H157.55C157.249 16.0177 156.766 16.6049 156.101 17.0747C155.442 17.5387 154.621 17.7707 153.638 17.7707C152.797 17.7707 152.053 17.5846 151.405 17.2122C150.763 16.8341 150.257 16.2755 149.888 15.5365C149.524 14.7975 149.342 13.8837 149.342 12.7953V4.39966H151.891V12.4859C151.891 13.3853 152.138 14.1014 152.632 14.6342C153.126 15.167 153.768 15.4334 154.558 15.4334C155.035 15.4334 155.51 15.3131 155.981 15.0725C156.459 14.8319 156.854 14.4681 157.166 13.9811C157.484 13.4942 157.641 12.8755 157.635 12.125Z" fill="#FAFAFA"/>
<path id="Vector_3" d="M146.285 7.62236L143.975 8.03483C143.878 7.73693 143.725 7.45336 143.515 7.1841C143.31 6.91485 143.032 6.69429 142.68 6.52242C142.327 6.35056 141.887 6.26462 141.359 6.26462C140.637 6.26462 140.035 6.4279 139.552 6.75444C139.069 7.07525 138.827 7.49059 138.827 8.00046C138.827 8.44158 138.989 8.79677 139.313 9.06602C139.637 9.33528 140.16 9.55584 140.881 9.7277L142.961 10.2089C144.165 10.4896 145.063 10.9222 145.654 11.5065C146.245 12.0908 146.54 12.8499 146.54 13.7837C146.54 14.5743 146.313 15.2789 145.859 15.8976C145.41 16.5106 144.782 16.9918 143.975 17.3413C143.174 17.6908 142.245 17.8655 141.188 17.8655C139.722 17.8655 138.526 17.5504 137.6 16.9202C136.674 16.2843 136.106 15.3821 135.896 14.2134L138.359 13.8353C138.512 14.4826 138.827 14.9724 139.305 15.3047C139.782 15.6313 140.404 15.7945 141.171 15.7945C142.006 15.7945 142.674 15.6198 143.174 15.2703C143.674 14.9152 143.924 14.4826 143.924 13.9728C143.924 13.5603 143.771 13.2137 143.464 12.933C143.163 12.6523 142.699 12.4403 142.074 12.2971L139.859 11.8073C138.637 11.5266 137.734 11.0797 137.148 10.4667C136.569 9.85373 136.279 9.07748 136.279 8.13795C136.279 7.35883 136.495 6.6771 136.927 6.09276C137.359 5.50842 137.955 5.05298 138.717 4.72643C139.478 4.39416 140.35 4.22803 141.333 4.22803C142.748 4.22803 143.861 4.53738 144.674 5.1561C145.486 5.76908 146.023 6.59117 146.285 7.62236Z" fill="#FAFAFA"/>
<path id="Vector_4" d="M121.663 22.5488V4.39989H124.151V6.53961H124.364C124.512 6.26462 124.725 5.94668 125.004 5.58576C125.282 5.22484 125.668 4.90976 126.163 4.6405C126.657 4.36552 127.31 4.22803 128.123 4.22803C129.18 4.22803 130.123 4.49728 130.952 5.03579C131.782 5.5743 132.432 6.35056 132.904 7.36456C133.381 8.37856 133.62 9.5988 133.62 11.0253C133.62 12.4518 133.384 13.6749 132.913 14.6946C132.441 15.7086 131.793 16.4906 130.969 17.0405C130.146 17.5848 129.205 17.8569 128.148 17.8569C127.353 17.8569 126.702 17.7223 126.197 17.453C125.697 17.1838 125.305 16.8687 125.021 16.5078C124.736 16.1468 124.518 15.826 124.364 15.5453H124.211V22.5488H121.663ZM124.16 10.9995C124.16 11.9276 124.293 12.7411 124.56 13.44C124.827 14.1389 125.214 14.686 125.719 15.0813C126.225 15.4708 126.844 15.6656 127.577 15.6656C128.339 15.6656 128.975 15.4623 129.486 15.0555C129.998 14.643 130.384 14.0845 130.646 13.3798C130.913 12.6752 131.046 11.8817 131.046 10.9995C131.046 10.1287 130.915 9.34673 130.654 8.65354C130.398 7.96036 130.012 7.41325 129.495 7.01224C128.984 6.61122 128.344 6.41071 127.577 6.41071C126.839 6.41071 126.214 6.60263 125.702 6.98646C125.197 7.37029 124.813 7.90593 124.552 8.59339C124.29 9.28085 124.16 10.0829 124.16 10.9995Z" fill="#FAFAFA"/>
<path id="Vector_5" d="M118.032 0V17.599H115.398V0H118.032Z" fill="#FAFAFA"/>
<path id="Vector_6" d="M87.6313 17.5991V4.39989H90.0774V6.5482H90.2393C90.512 5.82064 90.9581 5.25349 91.5774 4.84674C92.1967 4.43427 92.9382 4.22803 93.8018 4.22803C94.6768 4.22803 95.4098 4.43427 96.0007 4.84674C96.5973 5.25922 97.0376 5.82637 97.3217 6.5482H97.458C97.7705 5.84356 98.2677 5.28213 98.9495 4.86393C99.6313 4.43999 100.444 4.22803 101.387 4.22803C102.575 4.22803 103.543 4.60327 104.293 5.35374C105.049 6.10422 105.427 7.23566 105.427 8.74807V17.5991H102.879V8.98868C102.879 8.09499 102.637 7.44763 102.154 7.04661C101.671 6.64559 101.094 6.44508 100.424 6.44508C99.5944 6.44508 98.9495 6.70288 98.4893 7.21848C98.0291 7.72834 97.799 8.38429 97.799 9.18633V17.5991H95.2592V8.82541C95.2592 8.10931 95.0376 7.53356 94.5944 7.09817C94.1512 6.66278 93.5745 6.44508 92.8643 6.44508C92.3813 6.44508 91.9353 6.57398 91.5262 6.83178C91.1228 7.08385 90.7961 7.43617 90.5461 7.88875C90.3018 8.34132 90.1796 8.86551 90.1796 9.46131V17.5991H87.6313Z" fill="#FAFAFA"/>
<path id="Vector_7" d="M79.1876 17.8655C77.8979 17.8655 76.7871 17.5876 75.8552 17.032C74.9291 16.4705 74.2132 15.6828 73.7075 14.6688C73.2075 13.6491 72.9575 12.4546 72.9575 11.0854C72.9575 9.73343 73.2075 8.54183 73.7075 7.51064C74.2132 6.47946 74.9177 5.67456 75.8212 5.09594C76.7302 4.51733 77.7927 4.22803 79.0087 4.22803C79.7473 4.22803 80.4632 4.3512 81.1564 4.59754C81.8496 4.84388 82.4717 5.23057 83.0229 5.75762C83.574 6.28468 84.0087 6.96927 84.3268 7.81141C84.645 8.64782 84.8041 9.66468 84.8041 10.862V11.7729H74.3979V9.84801H82.307C82.307 9.172 82.1706 8.57334 81.8979 8.05202C81.6251 7.52497 81.2416 7.10963 80.7473 6.806C80.2587 6.50237 79.6848 6.35056 79.0257 6.35056C78.3098 6.35056 77.6848 6.52815 77.1507 6.88334C76.6223 7.2328 76.2132 7.6911 75.9234 8.25826C75.6393 8.81968 75.4973 9.4298 75.4973 10.0886V11.5924C75.4973 12.4747 75.6507 13.2251 75.9575 13.8439C76.27 14.4626 76.7047 14.9352 77.2615 15.2617C77.8183 15.5826 78.4689 15.743 79.2132 15.743C79.6962 15.743 80.1365 15.6742 80.5342 15.5367C80.932 15.3935 81.2757 15.1815 81.5655 14.9008C81.8552 14.6201 82.0768 14.2735 82.2302 13.861L84.6422 14.2993C84.449 15.0154 84.1024 15.6427 83.6024 16.1812C83.1081 16.714 82.4859 17.1293 81.7359 17.4272C80.9916 17.7194 80.1422 17.8655 79.1876 17.8655Z" fill="#FAFAFA"/>
<path id="Vector_8" d="M64.8032 17.599V4.39979H67.2663V6.49654H67.4027C67.6413 5.78617 68.0617 5.22761 68.664 4.82086C69.272 4.40839 69.9595 4.20215 70.7265 4.20215C70.8856 4.20215 71.0731 4.20788 71.289 4.21934C71.5106 4.23079 71.6839 4.24511 71.8089 4.2623V6.71997C71.7066 6.69132 71.5248 6.65982 71.2634 6.62544C71.0021 6.58534 70.7407 6.56529 70.4794 6.56529C69.8771 6.56529 69.3402 6.69419 68.8686 6.95198C68.4027 7.20405 68.0333 7.55638 67.7606 8.00895C67.4879 8.4558 67.3515 8.96567 67.3515 9.53855V17.599H64.8032Z" fill="#FAFAFA"/>
<path id="Vector_9" d="M55.8567 17.8655C54.6294 17.8655 53.5584 17.5819 52.6436 17.0148C51.7288 16.4476 51.0186 15.6542 50.5129 14.6344C50.0072 13.6147 49.7544 12.4231 49.7544 11.0597C49.7544 9.69046 50.0072 8.49314 50.5129 7.46768C51.0186 6.44222 51.7288 5.64591 52.6436 5.07876C53.5584 4.5116 54.6294 4.22803 55.8567 4.22803C57.0839 4.22803 58.155 4.5116 59.0697 5.07876C59.9845 5.64591 60.6947 6.44222 61.2004 7.46768C61.7061 8.49314 61.9589 9.69046 61.9589 11.0597C61.9589 12.4231 61.7061 13.6147 61.2004 14.6344C60.6947 15.6542 59.9845 16.4476 59.0697 17.0148C58.155 17.5819 57.0839 17.8655 55.8567 17.8655ZM55.8652 15.7086C56.6606 15.7086 57.3197 15.4966 57.8425 15.0727C58.3652 14.6488 58.7516 14.0845 59.0016 13.3798C59.2572 12.6752 59.3851 11.8989 59.3851 11.0511C59.3851 10.2089 59.2572 9.43553 59.0016 8.73089C58.7516 8.02051 58.3652 7.45049 57.8425 7.02083C57.3197 6.59117 56.6606 6.37634 55.8652 6.37634C55.0641 6.37634 54.3993 6.59117 53.8709 7.02083C53.3481 7.45049 52.9589 8.02051 52.7033 8.73089C52.4533 9.43553 52.3283 10.2089 52.3283 11.0511C52.3283 11.8989 52.4533 12.6752 52.7033 13.3798C52.9589 14.0845 53.3481 14.6488 53.8709 15.0727C54.3993 15.4966 55.0641 15.7086 55.8652 15.7086Z" fill="#FAFAFA"/>
<path id="Vector_10" d="M37 17.599V0H39.6335V15.3131H47.5426V17.599H37Z" fill="#FAFAFA"/>
</g>
<path id="Vector 25" d="M11 0H8L0 18H3L11 0Z" fill="#26b885"/>
<path id="Vector 26" d="M212 0H209L201 18H204L212 0Z" fill="#26b885"/>
<path id="Vector 27" d="M17 0H14L6 18H9L17 0Z" fill="#26b885"/>
<path id="Vector 28" d="M218 0H215L207 18H210L218 0Z" fill="#26b885"/>
</g>
</svg>
