<svg id="Layer_1" enable-background="new 0 0 25 25" height="512" viewBox="0 0 25 25" width="512" xmlns="http://www.w3.org/2000/svg" fill="#134fe3"><g><path d="m.5 6.6h24v-2.4c0-2-1.6-3.6-3.6-3.6h-16.8c-2 0-3.6 1.6-3.6 3.6v2.4zm7.9-4c.5 0 1 .4 1 1s-.5 1-1 1-1-.4-1-1 .5-1 1-1zm-3.9 0c.5 0 1 .4 1 1s-.5 1-1 1-1-.4-1-1 .4-1 1-1z"/><path d="m.5 20.8c0 2 1.6 3.6 3.6 3.6h16.8c2 0 3.6-1.6 3.6-3.6v-12.2h-24zm12-9.1c1.1 0 2.1.9 2.1 2s-.9 2.1-2.1 2.1c-1.1 0-2-.9-2-2.1 0-1 .9-2 2-2zm-3.9 7.8c.4-.8 1.1-1.5 1.8-1.9.2-.1.5-.1.7 0 .9.3 1.8.3 2.6 0 .2-.1.5-.1.7 0 .8.4 1.5 1.1 1.9 1.9s-.2 1.8-1.1 1.8h-5.5c-.9 0-1.5-1-1.1-1.8z"/></g></svg>