<svg width="24" height="29" viewBox="0 0 24 29" fill="none" xmlns="http://www.w3.org/2000/svg">
<path d="M21.3333 7.00016H18.6667C18.6667 3.26683 15.7333 0.333496 12 0.333496C8.26667 0.333496 5.33333 3.26683 5.33333 7.00016H2.66667C1.2 7.00016 0 8.20016 0 9.66683V25.6668C0 27.1335 1.2 28.3335 2.66667 28.3335H21.3333C22.8 28.3335 24 27.1335 24 25.6668V9.66683C24 8.20016 22.8 7.00016 21.3333 7.00016ZM12 3.00016C14.2667 3.00016 16 4.7335 16 7.00016H8C8 4.7335 9.73333 3.00016 12 3.00016ZM21.3333 25.6668H2.66667V9.66683H21.3333V25.6668ZM12 15.0002C9.73333 15.0002 8 13.2668 8 11.0002H5.33333C5.33333 14.7335 8.26667 17.6668 12 17.6668C15.7333 17.6668 18.6667 14.7335 18.6667 11.0002H16C16 13.2668 14.2667 15.0002 12 15.0002Z" fill="#737791"/>
</svg>
