<svg class="svg-icon" style="width: 1em; height: 1em;vertical-align: middle;fill: currentColor;overflow: hidden;" viewBox="0 0 1024 1024" version="1.1" xmlns="http://www.w3.org/2000/svg"><path d="M1016.3622 47.764c-6.372-5.31-14.867-6.372-22.301-3.186L24.5042 469.356C8.5752 475.728-0.9828 491.657 0.0792 509.711s11.681 32.921 28.673 39.292l283.54 93.451v254.867c0 23.363 14.867 43.54 37.168 49.913 22.301 7.434 46.726-1.062 60.531-20.177l118.938-172.035L780.6102 971.659c7.434 6.372 16.991 9.558 27.611 9.558 5.31 0 9.558-1.062 13.805-2.124 14.867-5.31 25.487-16.991 27.611-31.858l174.159-878.229c1.062-7.434-2.124-15.929-7.434-21.241zM507.6902 710.418L374.9472 902.63c-4.247 6.372-9.558 5.31-12.743 4.249-2.124 0-7.434-3.186-7.434-9.558V627.587c0-9.558-5.31-16.991-14.867-20.177L41.4962 507.587l862.3-376.991-424.778 349.379c-9.558 7.434-10.619 21.238-3.186 29.734 4.249 5.31 10.619 7.434 15.929 7.434 4.247 0 9.558-1.062 13.805-5.31L874.0602 209.178 507.6892 710.416z m300.531 228.318L553.3542 719.975l407.787-556.46-152.919 775.221z"  /><path d="M421.6732 526.701l-33.982 27.611c-9.558 7.434-10.619 21.241-3.186 29.734 4.249 5.31 10.619 7.434 16.991 7.434 4.249 0 9.558-1.062 13.805-4.249l33.982-27.611c9.558-7.434 10.619-21.238 3.186-29.734s-21.241-9.558-30.796-3.186z"  /></svg>