<svg width="32" height="32" viewBox="0 0 32 32" fill="none" xmlns="http://www.w3.org/2000/svg">
<path fill-rule="evenodd" clip-rule="evenodd" d="M21.7722 22.2009L26.3346 16.8775C26.5524 16.629 26.6639 16.3152 26.6641 15.9998C26.6642 15.784 26.6122 15.5674 26.5065 15.3704C26.4595 15.2826 26.4022 15.1992 26.3346 15.1221L21.7722 9.7987C21.293 9.23957 20.4513 9.17478 19.8921 9.65398C19.333 10.1332 19.2682 10.9749 19.7474 11.534L22.432 14.6664L12.1058 14.6664C11.3694 14.6664 10.7724 15.2633 10.7724 15.9997C10.7724 16.7361 11.3694 17.333 12.1058 17.333L22.4321 17.333L19.7474 20.4655C19.2682 21.0247 19.333 21.8664 19.8921 22.3456C20.4513 22.8248 21.293 22.76 21.7722 22.2009ZM13.3307 7.99967C14.0671 7.99967 14.6641 8.59663 14.6641 9.33301L14.6641 11.333C14.6641 12.0694 15.261 12.6663 15.9974 12.6663C16.7338 12.6663 17.3307 12.0694 17.3307 11.333L17.3307 9.33301C17.3307 7.12387 15.5399 5.33301 13.3307 5.33301L9.33073 5.33301C7.12159 5.33301 5.33073 7.12387 5.33073 9.33301L5.33073 22.6663C5.33073 24.8755 7.12159 26.6663 9.33073 26.6663L13.3307 26.6663C15.5399 26.6663 17.3307 24.8755 17.3307 22.6663L17.3307 20.6663C17.3307 19.93 16.7338 19.333 15.9974 19.333C15.261 19.333 14.6641 19.93 14.6641 20.6663L14.6641 22.6663C14.6641 23.4027 14.0671 23.9997 13.3307 23.9997L9.33073 23.9997C8.59435 23.9997 7.99739 23.4027 7.99739 22.6663L7.99739 9.33301C7.99739 8.59663 8.59435 7.99967 9.33073 7.99967L13.3307 7.99967Z" fill="#737791"/>
</svg>
