<svg width="26" height="23" viewBox="0 0 26 23" fill="none" xmlns="http://www.w3.org/2000/svg">
<path fill-rule="evenodd" clip-rule="evenodd" d="M18 11.5C18 13.9853 15.9853 16 13.5 16C11.0147 16 9 13.9853 9 11.5C9 9.01471 11.0147 7 13.5 7C15.9853 7 18 9.01471 18 11.5ZM16.045 11.5C16.045 12.9056 14.9056 14.045 13.5 14.045C12.0944 14.045 10.955 12.9056 10.955 11.5C10.955 10.0944 12.0944 8.95497 13.5 8.95497C14.9056 8.95497 16.045 10.0944 16.045 11.5Z" fill="#535353"/>
<path fill-rule="evenodd" clip-rule="evenodd" d="M23.2236 3.86315C23.7076 4.41064 24.3628 5.18664 24.7758 5.81728C25.181 6.43584 25.6046 7.29827 25.8934 7.9244C26.1206 8.41706 25.9761 8.97208 25.5404 9.35208L23.305 10.9053C23.1171 11.0692 23.0126 11.2885 23.0137 11.5164C23.0148 11.7305 23.109 11.9368 23.2785 12.0962L25.5404 13.6713C25.8906 14.0005 26.0203 14.45 25.8934 14.8792C25.7033 15.5225 25.2662 16.4835 24.8805 17.1493C24.4807 17.8394 23.7515 18.6605 23.2246 19.214C22.847 19.6106 22.2321 19.7774 21.6437 19.6657L18.6461 18.7995C18.3824 18.7494 18.106 18.7882 17.8758 18.9077C17.6596 19.0199 17.4998 19.1951 17.4266 19.4001L17.1821 21.7426C17.1022 22.1836 16.5844 22.5608 16.0278 22.6654C15.22 22.8171 14.0197 23.0074 13.1097 22.9998C12.226 22.9927 11.0647 22.7945 10.2798 22.6378C9.73208 22.5285 9.30755 22.1737 9.14534 21.719L8.89688 19.3656C8.82374 19.1606 8.66389 18.9854 8.44768 18.8732C8.2175 18.7537 7.94106 18.7149 7.6774 18.765L4.64701 19.6374C4.07613 19.7458 3.47943 19.5927 3.09814 19.2183C2.536 18.6664 1.73326 17.8252 1.28529 17.1158C0.879275 16.4728 0.318438 15.5457 0.0942715 14.9094C-0.0624471 14.4645 0.0895724 13.9876 0.456987 13.6421L2.74303 12.0962C2.94861 11.9461 3.00677 11.7305 3.00784 11.5164C3.00896 11.2885 2.9365 11.0768 2.71656 10.9053L0.456987 9.33106C0.0339154 8.96209 -0.115816 8.4267 0.0942715 7.94496C0.38433 7.27985 0.836268 6.33425 1.31312 5.68406C1.80057 5.0194 2.62837 4.23487 3.20214 3.72218C3.59037 3.37527 4.16926 3.24076 4.71979 3.35011L7.54373 4.20407C7.79081 4.25316 8.05066 4.22399 8.27394 4.12217C8.51166 4.01373 8.74603 3.83575 8.77018 3.61362L9.09066 1.13342C9.27058 0.646589 9.75088 0.280417 10.3483 0.202203C11.1731 0.0942273 12.3651 -0.0302196 13.2647 0.00659693C14.0667 0.0394157 15.0973 0.138863 15.8593 0.221318C16.5047 0.291151 17.0313 0.683518 17.2076 1.21178L17.5809 3.40321C17.6445 3.64821 17.6852 3.9976 17.9176 4.10708C18.1313 4.20771 18.3669 4.25587 18.6059 4.21169L21.5922 3.36039C22.2077 3.24661 22.8468 3.43705 23.2236 3.86315ZM22.2709 5.96346C22.4748 6.21467 22.6884 6.49341 22.8422 6.7333C22.9888 6.96194 23.1418 7.25004 23.2747 7.5182C23.5177 8.00858 23.3714 8.56872 22.9334 8.95076L21.2712 10.004C20.9713 10.2656 20.8044 10.6157 20.8062 10.9795L20.8115 12.0335C20.8132 12.3752 20.9636 12.7045 21.2341 12.9589L22.8313 14.0333C23.2098 14.3892 23.3485 14.8846 23.1668 15.3374C23.0218 15.6985 22.8339 16.1241 22.641 16.4448C22.5379 16.6161 22.4015 16.8105 22.2631 16.9963C21.9105 17.4697 21.333 17.7497 20.5874 17.559L18.5002 16.8656C18.0794 16.7857 17.6381 16.8477 17.2707 17.0384L16.2064 17.5906C15.8613 17.7696 15.6061 18.0493 15.4894 18.3766L15.3141 20.1777C15.2392 20.6474 14.8815 20.9665 14.3527 21.0686C14.0002 21.1367 13.5957 21.1975 13.2645 21.2003C12.8648 21.2037 12.3686 21.1244 11.9558 21.0397C11.4356 20.9329 10.9928 20.6035 10.9603 20.1777L10.8341 18.3421C10.7174 18.0148 10.4622 17.7351 10.1171 17.5561L9.05283 17.0038C8.68537 16.8132 8.24415 16.7512 7.82326 16.8311L5.62956 17.5447C5.04799 17.6551 4.4446 17.4608 4.09826 17.0515C4.09826 17.0515 3.51604 16.4707 3.24605 16.0445C3.01444 15.679 2.77927 15.0589 2.77927 15.0589C2.65806 14.7795 2.72951 14.4665 2.96502 14.2451L4.78739 12.9589C5.05794 12.7045 5.20833 12.3752 5.21004 12.0335L5.2153 10.9795C5.21712 10.6156 4.94692 10.3599 4.64701 10.0984L3.05056 8.91798C2.6091 8.5609 2.47746 8.02395 2.69711 7.55143C2.85769 7.20597 3.06436 6.81274 3.28542 6.5237C3.47046 6.28174 3.74468 6.00937 3.99649 5.77804C4.37282 5.4323 4.97789 5.23317 5.48749 5.4131L7.62334 6.1304C8.01935 6.20904 8.43585 6.16179 8.79314 5.99769L9.89476 5.49173C10.2718 5.31857 10.5542 5.02851 10.6823 4.68289C10.6823 4.68289 10.8633 3.38325 10.9603 2.86706C11.0574 2.35089 11.4329 1.93367 12.0341 1.87198C12.4464 1.82967 12.9186 1.79778 13.2993 1.81737C13.5558 1.83058 13.8572 1.85582 14.1436 1.88341C14.7882 1.94553 15.3761 2.41193 15.4814 2.9402C15.5867 3.46846 15.7415 4.31926 15.7415 4.31926C15.7415 4.31926 15.8835 5.32271 16.263 5.50273L17.2924 5.99099C17.6474 6.1594 18.0637 6.21134 18.4614 6.13686L20.6225 5.43389C21.2513 5.3161 21.9072 5.51512 22.2709 5.96346Z" fill="#535353"/>
</svg>
