<svg width="26" height="23" viewBox="0 0 26 23" fill="none" xmlns="http://www.w3.org/2000/svg">
<path d="M25.2353 10.6666H24.4706V6.81246C24.4706 5.54058 23.4382 4.49996 22.1765 4.49996H21.4118V2.31078C21.4118 1.67099 21.1441 1.04661 20.6776 0.614946C20.2112 0.183278 19.5765 -0.0402643 18.9418 0.00598586L2.17176 1.30099C0.955882 1.4012 0 2.44183 0 3.66745V20.6875C0 21.9594 1.03235 23 2.29412 23H22.1765C23.4382 23 24.4706 21.9594 24.4706 20.6875V16.8333H25.2353C25.6559 16.8333 26 16.4864 26 16.0625V11.4375C26 11.0135 25.6559 10.6666 25.2353 10.6666ZM2.29412 2.84266L19.0641 1.54766C19.2782 1.53224 19.4847 1.60161 19.6453 1.74807C19.7982 1.89453 19.89 2.09495 19.89 2.31078V4.49996H2.35529C2.13353 4.49996 1.92706 4.41516 1.76647 4.24558C1.61353 4.09912 1.52941 3.891 1.52941 3.66745C1.52941 3.23579 1.86588 2.87349 2.29412 2.84266ZM22.9412 20.6875C22.9412 21.1115 22.5971 21.4583 22.1765 21.4583H2.29412C1.87353 21.4583 1.52941 21.1115 1.52941 20.6875V5.89517C1.78941 5.99538 2.06471 6.04163 2.35529 6.04163H22.1765C22.5971 6.04163 22.9412 6.3885 22.9412 6.81246V10.6666H21.4118C19.7218 10.6666 18.3529 12.0464 18.3529 13.75C18.3529 14.5748 18.6741 15.3456 19.2476 15.9314C19.8288 16.5173 20.5935 16.8333 21.4118 16.8333H22.9412V20.6875ZM24.4706 15.2916H21.4118C21.0065 15.2916 20.6241 15.1298 20.3335 14.8369C20.0429 14.5439 19.8824 14.1585 19.8824 13.75C19.8824 12.9021 20.5706 12.2083 21.4118 12.2083H24.4706V15.2916ZM4.58824 15.2916V19.1458C4.58824 19.5698 4.24412 19.9167 3.82353 19.9167C3.40294 19.9167 3.05882 19.5698 3.05882 19.1458V15.2916C3.05882 14.8677 3.40294 14.5208 3.82353 14.5208C4.24412 14.5208 4.58824 14.8677 4.58824 15.2916ZM4.58824 8.35413V12.2083C4.58824 12.6323 4.24412 12.9791 3.82353 12.9791C3.40294 12.9791 3.05882 12.6323 3.05882 12.2083V8.35413C3.05882 7.93017 3.40294 7.5833 3.82353 7.5833C4.24412 7.5833 4.58824 7.93017 4.58824 8.35413Z" fill="#535353"/>
</svg>
