<svg width="24" height="26" viewBox="0 0 24 26" fill="none" xmlns="http://www.w3.org/2000/svg">
<path d="M23.3516 5.25018C23.3516 2.35083 21.0007 0 18.1014 0H5.25018C2.35083 0 0 2.35083 0 5.25018V15.4763C0 18.0622 1.88066 20.2171 4.34903 20.6481V25.0755C4.34903 25.3889 4.54493 25.7024 4.8192 25.8591C4.93674 25.9375 5.09346 25.9375 5.211 25.9375C5.4069 25.9375 5.56363 25.8983 5.72035 25.7807L8.34544 23.8609C11.2056 21.7843 14.5751 20.6873 18.1014 20.6873C21.0007 20.6873 23.3516 18.3365 23.3516 15.4371V5.25018ZM21.6276 15.4763C21.6276 17.3961 20.0604 18.9633 18.1406 18.9633C14.2617 18.9633 10.5395 20.1779 7.36593 22.4504L6.11215 23.3516V19.8253C6.11215 19.3552 5.72035 18.9633 5.25018 18.9633C3.33034 18.9633 1.76312 17.3961 1.76312 15.4763V5.25018C1.76312 3.33034 3.33034 1.76312 5.25018 1.76312H18.1406C20.0604 1.76312 21.6276 3.33034 21.6276 5.25018V15.4763Z" fill="#535353"/>
<path d="M11.6766 5.52441C10.2269 5.52441 8.81641 6.46475 8.81641 8.26705C8.81641 8.73721 9.20821 9.12902 9.67838 9.12902C10.1485 9.12902 10.5403 8.73721 10.5403 8.26705C10.5403 7.32672 11.559 7.28754 11.6766 7.28754C11.7941 7.28754 12.8128 7.32672 12.8128 8.26705V8.46295C12.8128 8.85475 12.6169 9.1682 12.2643 9.3641L11.4807 9.79509C11.0497 10.0302 10.8146 10.4612 10.8146 10.9313V11.6366C10.8146 12.1067 11.2064 12.4985 11.6766 12.4985C12.1467 12.4985 12.5386 12.1067 12.5386 11.6366V11.2056L13.0871 10.9313C13.9882 10.4612 14.5368 9.52082 14.5368 8.50213V8.26705C14.5368 6.46475 13.0871 5.52441 11.6766 5.52441Z" fill="#535353"/>
<path d="M11.6751 13.478C10.2646 13.478 10.2646 15.6721 11.6751 15.6721C13.0856 15.6721 13.0856 13.478 11.6751 13.478Z" fill="#535353"/>
</svg>
