<svg width="23" height="23" viewBox="0 0 23 23" fill="none" xmlns="http://www.w3.org/2000/svg">
<path d="M22.9992 11.5068C22.9989 11.5462 22.9948 11.5859 22.9866 11.6249C22.9817 11.6469 22.9732 11.6674 22.9664 11.6886C22.9604 11.7071 22.9561 11.726 22.9481 11.744C22.9367 11.7704 22.9214 11.7939 22.9066 11.8183C22.8995 11.83 22.8941 11.8428 22.8859 11.8544C22.8602 11.8905 22.831 11.924 22.7983 11.9548L18.1974 16.2717C17.9307 16.522 17.4988 16.522 17.2324 16.2717C16.9657 16.0218 16.9657 15.6163 17.2324 15.3663L20.6698 12.1405H8.62275C8.24576 12.1405 7.94029 11.8539 7.94029 11.5001C7.94029 11.1464 8.24576 10.8598 8.62275 10.8598H20.6704L17.2318 7.63397C16.9651 7.38398 16.9651 6.97851 17.2318 6.72852C17.3651 6.60352 17.5398 6.54102 17.7145 6.54102C17.8892 6.54102 18.0636 6.60352 18.1971 6.72852L22.8002 11.047C22.8043 11.0509 22.8067 11.0555 22.8108 11.0593C22.8378 11.086 22.863 11.1139 22.8848 11.1444C22.8979 11.1625 22.9069 11.1823 22.9178 11.2017C22.9277 11.2191 22.9394 11.236 22.9473 11.2545C22.9577 11.2778 22.964 11.3019 22.9711 11.3257C22.976 11.3418 22.9828 11.3575 22.9864 11.3741C22.9951 11.4156 23 11.4576 23 11.4996C23 11.5022 22.9992 11.5047 22.9992 11.5068ZM13.4851 9.83471C13.1081 9.83471 12.8027 9.54809 12.8027 9.19437V5.76313C12.8027 3.29164 10.6595 1.28069 8.02546 1.28069H6.14214C3.50812 1.28069 1.36492 3.29164 1.36492 5.76313V17.2369C1.36492 19.7084 3.50812 21.7193 6.14214 21.7193H8.02546C10.6595 21.7193 12.8027 19.7084 12.8027 17.2369V14.0185C12.8027 13.6648 13.1081 13.3781 13.4851 13.3781C13.8621 13.3781 14.1676 13.6648 14.1676 14.0185V17.2369C14.1676 20.4145 11.4121 23 8.02546 23H6.14214C2.7555 23 0 20.4145 0 17.2369V5.76313C0 2.58547 2.7555 -5.36442e-07 6.14214 -5.36442e-07H8.02546C11.4121 -5.36442e-07 14.1676 2.58547 14.1676 5.76313V9.19437C14.1676 9.54809 13.8621 9.83471 13.4851 9.83471Z" fill="#535353"/>
</svg>
