<svg width="25" height="25" viewBox="0 0 25 25" fill="none" xmlns="http://www.w3.org/2000/svg">
<path d="M12.5 0C10.0277 0 7.61099 0.733112 5.55538 2.10663C3.49976 3.48015 1.89761 5.43238 0.951511 7.71646C0.00541602 10.0005 -0.242126 12.5139 0.24019 14.9386C0.722505 17.3634 1.91301 19.5907 3.66117 21.3388C5.40933 23.087 7.63661 24.2775 10.0614 24.7598C12.4861 25.2421 14.9995 24.9946 17.2835 24.0485C19.5676 23.1024 21.5199 21.5002 22.8934 19.4446C24.2669 17.389 25 14.9723 25 12.5C24.9964 9.18591 23.6782 6.0086 21.3348 3.66519C18.9914 1.32177 15.8141 0.00364119 12.5 0ZM12.5 2.04054C14.3976 2.04086 16.2593 2.55739 17.8858 3.5348C19.5123 4.51221 20.8422 5.91368 21.7331 7.58909C22.6241 9.26449 23.0425 11.1507 22.9435 13.0457C22.8445 14.9407 22.2318 16.773 21.1711 18.3465C20.0701 16.5632 18.4467 15.1623 16.5215 14.3342C17.2914 13.5434 17.811 12.5432 18.0155 11.4586C18.2199 10.374 18.1001 9.25324 17.6709 8.23642C17.2417 7.21961 16.5223 6.35189 15.6026 5.74179C14.6829 5.13169 13.6037 4.8063 12.5 4.8063C11.3963 4.8063 10.3171 5.13169 9.39743 5.74179C8.47771 6.35189 7.75827 7.21961 7.3291 8.23642C6.89993 9.25324 6.78008 10.374 6.98452 11.4586C7.18896 12.5432 7.70864 13.5434 8.47854 14.3342C6.55206 15.1648 4.92845 16.569 3.82887 18.3556C2.76572 16.7821 2.15102 14.9488 2.05071 13.0524C1.95041 11.1561 2.3683 9.26815 3.25954 7.59124C4.15077 5.91433 5.48174 4.51171 7.10964 3.53383C8.73755 2.55596 10.601 2.03973 12.5 2.04054ZM8.92792 10.4274C8.92701 9.72068 9.13574 9.0296 9.52769 8.44157C9.91965 7.85354 10.4772 7.39499 11.1298 7.12392C11.7825 6.85286 12.5008 6.78146 13.1941 6.91877C13.8873 7.05609 14.5242 7.39593 15.0242 7.89531C15.5242 8.3947 15.8649 9.03117 16.0031 9.72421C16.1413 10.4173 16.0708 11.1357 15.8006 11.7887C15.5304 12.4417 15.0725 12.9998 14.485 13.3925C13.8975 13.7852 13.2067 13.9949 12.5 13.9949C11.5538 13.9937 10.6466 13.6175 9.97711 12.9489C9.30761 12.2803 8.93034 11.3736 8.92792 10.4274ZM5.23203 20.0018C6.11856 18.2561 7.60025 16.885 9.40939 16.1363C9.8412 15.952 10.2895 15.8092 10.7484 15.7098C11.8802 16.1197 13.1198 16.1197 14.2517 15.7098C14.7223 15.8033 15.1829 15.9415 15.6273 16.1225C17.4308 16.8725 18.9072 18.2416 19.7909 19.9835C17.8468 21.8797 15.2386 22.941 12.5229 22.941C9.80722 22.941 7.19904 21.8797 5.25496 19.9835L5.23203 20.0018Z" fill="#535353"/>
</svg>
