<svg class="svg-icon" style="width: 1em;height: 1em;vertical-align: middle;fill: currentColor;overflow: hidden;" viewBox="0 0 1024 1024" version="1.1" xmlns="http://www.w3.org/2000/svg"><path d="M512 624c-70.56 0-128-50.24-128-112s57.44-112 128-112 128 50.24 128 112-57.44 112-128 112z m0-192c-52.96 0-96 35.84-96 80s43.04 80 96 80 96-35.84 96-80-43.04-80-96-80z"  /><path d="M880 448h-128a16 16 0 0 1-16-16V256H288v176a16 16 0 0 1-16 16H144a80 80 0 0 1-80-80V192a80 80 0 0 1 80-80h736a80 80 0 0 1 80 80v176a80 80 0 0 1-80 80z m-112-32h112a48 48 0 0 0 48-48V192a48 48 0 0 0-48-48H144a48 48 0 0 0-48 48v176a48 48 0 0 0 48 48h112V240a16 16 0 0 1 16-16h480a16 16 0 0 1 16 16z"  /><path d="M272 336h-64a16 16 0 0 1-16-16v-80a16 16 0 0 1 16-16h64a16 16 0 0 1 16 16v80a16 16 0 0 1-16 16z m-48-32h32v-48h-32zM624 896H400a16 16 0 0 1-16-16 48 48 0 0 0-48-48 16 16 0 0 1-16-16V240a16 16 0 0 1 16-16h352a16 16 0 0 1 16 16v576a16 16 0 0 1-16 16 48 48 0 0 0-48 48 16 16 0 0 1-16 16z m-209.6-32h195.2a80 80 0 0 1 62.4-62.4V256H352v545.6a80 80 0 0 1 62.4 62.4z"  /><path d="M688 960H336a80 80 0 0 1-80-80V240a16 16 0 0 1 16-16h64a16 16 0 0 1 16 16v561.6a80 80 0 0 1 62.4 62.4h195.2a80 80 0 0 1 62.4-62.4V240a16 16 0 0 1 16-16h64a16 16 0 0 1 16 16v640a73.12 73.12 0 0 1-3.04 21.44A80 80 0 0 1 688 960zM288 256v624a48 48 0 0 0 48 48h352a48 48 0 0 0 46.08-35.2A44.32 44.32 0 0 0 736 880V256h-32v560a16 16 0 0 1-16 16 48 48 0 0 0-48 48 16 16 0 0 1-16 16H400a16 16 0 0 1-16-16 48 48 0 0 0-48-48 16 16 0 0 1-16-16V256z"  /><path d="M816 336h-64a16 16 0 0 1-16-16v-80a16 16 0 0 1 16-16h64a16 16 0 0 1 16 16v80a16 16 0 0 1-16 16z m-48-32h32v-48h-32z"  /></svg>