<svg class="svg-icon" style="width: 1em;height: 1em;vertical-align: middle;fill: currentColor;overflow: hidden;" viewBox="0 0 1024 1024" version="1.1" xmlns="http://www.w3.org/2000/svg"><path d="M817.455 106.667c53.19 0 97.292 40.15 99.769 91.445l0.11 4.555V352c0 48.632-37.352 88.236-85.323 94.985L832 821.333c0 51.505-40.56 93.536-91.48 95.896l-4.52 0.104H288c-51.504 0-93.536-40.56-95.896-91.48l-0.104-4.52 0.01-374.345c-46.475-6.529-82.987-43.894-85.234-90.434l-0.11-4.554V202.667c0-51.927 42.583-93.56 95.21-95.897l4.67-0.103h610.909zM768 320H256v501.333c0 15.594 11.154 28.583 25.92 31.423l2.998 0.43 3.082 0.147h448c16.634 0 30.303-12.69 31.854-28.918l0.146-3.082V320z m-171.96 62.706l45.254 45.255L557.227 512H640v64h-96v42.667h96v64h-96V768h-64v-85.333h-96v-64h96V576h-96v-64h82.752l-84.046-84.04 45.255-45.254L512 466.752l84.04-84.046z m221.415-212.04h-610.91c-19.099 0-34.125 13.168-35.735 29.153l-0.143 2.848V352c0 12.79 8.619 24.217 21.327 29.263L192 256h640l0.027 125.254c11.746-4.671 19.993-14.795 21.163-26.406l0.143-2.848V202.667c0-16.281-13.965-30.353-32.552-31.866l-3.326-0.134z"  /></svg>