<svg width="42" height="42" viewBox="0 0 42 42" fill="none" xmlns="http://www.w3.org/2000/svg">
<g clip-path="url(#clip0_34_30080)">
<path d="M20.6461 41.5232C31.9807 41.5232 41.1692 32.3347 41.1692 21.0001C41.1692 9.66554 31.9807 0.477051 20.6461 0.477051C9.31154 0.477051 0.123047 9.66554 0.123047 21.0001C0.123047 32.3347 9.31154 41.5232 20.6461 41.5232Z" fill="#F7931A"/>
<path d="M29.8674 18.4605C30.2701 15.772 28.2217 14.3264 25.4228 13.3618L26.331 9.71898L24.1145 9.16743L23.2294 12.7141C22.6471 12.5678 22.0494 12.4319 21.4529 12.2959L22.3444 8.72618L20.1279 8.17334L19.2197 11.8149C18.7374 11.7046 18.2629 11.5968 17.8036 11.4814L17.8062 11.4699L14.7483 10.7067L14.1582 13.0745C14.1582 13.0745 15.8039 13.4516 15.7693 13.4747C16.6672 13.6992 16.8288 14.2931 16.8019 14.7651L15.768 18.9146C15.8296 18.93 15.9091 18.9531 15.9989 18.9877L15.7642 18.93L14.3147 24.7432C14.2044 25.0151 13.9261 25.4243 13.2975 25.2691C13.3206 25.3011 11.6865 24.8676 11.6865 24.8676L10.5859 27.4047L13.472 28.1243C14.0082 28.259 14.5341 28.4001 15.051 28.5322L14.1339 32.2161L16.3491 32.7677L17.2572 29.1248C17.8627 29.2877 18.4501 29.4391 19.0248 29.5828L18.1192 33.2102L20.3357 33.7618L21.2528 30.0856C25.0342 30.8013 27.8766 30.5127 29.0734 27.0931C30.038 24.3404 29.0259 22.7511 27.0365 21.716C28.4859 21.3825 29.5762 20.4295 29.8674 18.4605ZM24.8007 25.5641C24.1171 28.318 19.4801 26.8288 17.9768 26.4556L19.1954 21.5749C20.6987 21.9507 25.5178 22.6934 24.8007 25.5641ZM25.487 18.4208C24.8623 20.9259 21.004 19.6522 19.7533 19.3405L20.8565 14.9152C22.1071 15.2269 26.1386 15.8079 25.487 18.4208Z" fill="white"/>
</g>
<defs>
<clipPath id="clip0_34_30080">
<rect width="41.0462" height="41.0462" fill="white" transform="translate(0.123047 0.477051)"/>
</clipPath>
</defs>
</svg>
